<svg xmlns="http://www.w3.org/2000/svg" viewBox="0 0 512 512" role="img" aria-label="S2H3 logo">
  <rect width="512" height="512" rx="256" fill="#0c0a09"/>
  <circle cx="256" cy="256" r="238" fill="none" stroke="#f97316" stroke-width="18"/>
  <text x="256" y="120" text-anchor="middle" font-family="Arial Black, Arial, sans-serif" font-size="76" fill="#ffffff">S2H3</text>
  <text x="256" y="430" text-anchor="middle" font-family="Arial Black, Arial, sans-serif" font-size="30" fill="#f97316">ON-ON!</text>
  <path d="M95 270 L145 220 L195 270 M145 220 V350 M115 295 H175 M115 330 H175" fill="none" stroke="#ffffff" stroke-width="18" stroke-linecap="round" stroke-linejoin="round"/>
  <path d="M317 270 L367 220 L417 270 M367 220 V350 M337 295 H397 M337 330 H397" fill="none" stroke="#ffffff" stroke-width="18" stroke-linecap="round" stroke-linejoin="round"/>
  <rect x="205" y="190" width="105" height="150" rx="18" fill="#facc15" stroke="#ffffff" stroke-width="12"/>
  <path d="M310 225 h30 c30 0 30 82 0 82 h-30" fill="none" stroke="#ffffff" stroke-width="12"/>
  <path d="M198 190 c10-35 90-35 118 0 c25 0 38 30 15 48 c-30 6-73 6-135 0 c-25-20-13-48 2-48z" fill="#fff7ed" stroke="#ffffff" stroke-width="8"/>
</svg>